<svg width="13" height="12" viewBox="0 0 13 12" fill="none" xmlns="http://www.w3.org/2000/svg">
<g clip-path="url(#clip0)">
<path d="M6.91748 7.5C5.03748 7.5 3.91748 5.34 3.91748 3.25C3.91748 1.75 4.25748 0 6.91748 0C9.57748 0 9.91748 1.735 9.91748 3.25C9.91748 5.34 8.79748 7.5 6.91748 7.5ZM6.91748 0.5C5.14248 0.5 4.41748 1.295 4.41748 3.25C4.41748 4.805 5.19248 7 6.91748 7C8.64248 7 9.41748 4.805 9.41748 3.25C9.41748 1.295 8.69248 0.5 6.91748 0.5Z" fill="white"/>
<path d="M1.41748 12H0.91748C0.91748 10.125 3.26248 8.885 4.03248 8.5C5.03248 8 5.19248 8 5.19248 6.5H5.69248C5.69248 8 5.46248 8.345 4.25748 8.945C3.55248 9.295 1.41748 10.435 1.41748 12ZM12.9175 12H12.4175C12.4175 10.435 10.2825 9.295 9.58248 8.945C8.37248 8.345 8.14748 8 8.14748 6.5H8.64748C8.64748 8 8.82248 8 9.80748 8.5C10.5725 8.885 12.9175 10.125 12.9175 12Z" fill="white"/>
</g>
<defs>
<clipPath id="clip0">
<rect width="12" height="12" fill="white" transform="translate(0.91748)"/>
</clipPath>
</defs>
</svg>
