<svg width="24" height="24" viewBox="0 0 24 24" fill="none" xmlns="http://www.w3.org/2000/svg">
<path d="M7 1C6.44772 1 6 1.44772 6 2V3.5H4C2.897 3.5 2 4.397 2 5.5V20.5C2 21.603 2.897 22.5 4 22.5H20C21.103 22.5 22 21.603 22 20.5V5.5C22 4.397 21.103 3.5 20 3.5H18V2C18 1.44772 17.5523 1 17 1C16.4477 1 16 1.44772 16 2V3.5H8V2C8 1.44772 7.55228 1 7 1ZM16 4.5V5C16 5.55228 16.4477 6 17 6C17.5523 6 18 5.55228 18 5V4.5H20C20.5523 4.5 21 4.94772 21 5.5V20.5C21 21.0523 20.5523 21.5 20 21.5H4C3.449 21.5 3 21.052 3 20.5V5.5C3 4.948 3.449 4.5 4 4.5H6V5C6 5.55228 6.44772 6 7 6C7.55228 6 8 5.55228 8 5V4.5H16Z" fill="#0B1F35" fill-opacity="0.9"/>
<path d="M5 9H9V11H5V9ZM10 9H14V11H10V9ZM5 14H9V16H5V14ZM10 14H14V16H10V14ZM15 9H19V11H15V9Z" fill="#0B1F35" fill-opacity="0.9"/>
</svg>
