<svg width="16" height="16" viewBox="0 0 16 16" fill="none" xmlns="http://www.w3.org/2000/svg">
<path d="M1.33337 12.658V7.27387C1.33337 6.33171 1.33337 5.86063 1.52986 5.45071C1.72635 5.0408 2.09359 4.74575 2.82807 4.15564L6.33011 1.34198C7.13077 0.6987 7.53111 0.377063 8.00037 0.377075C8.46971 0.377087 8.86997 0.698747 9.67064 1.34207L13.1722 4.15564C13.9066 4.74575 14.2738 5.0408 14.4702 5.4507C14.6667 5.86059 14.6667 6.33165 14.6667 7.27373V12.658C14.6667 13.6049 14.6667 14.0783 14.3412 14.3725C14.0158 14.6667 13.492 14.6667 12.4445 14.6667H11.1516C10.523 14.6667 10.2088 14.6667 10.0135 14.4714C9.81824 14.2761 9.81824 13.9619 9.81824 13.3333V11.3189C9.81824 10.9491 9.48657 10.6493 9.07751 10.6493H6.92257C6.5135 10.6493 6.18186 10.9491 6.18186 11.3189V13.3333C6.18186 13.9619 6.18186 14.2761 5.98659 14.4714C5.79133 14.6667 5.47707 14.6667 4.84853 14.6667H3.55559C2.50803 14.6667 1.98425 14.6667 1.65881 14.3725C1.33337 14.0783 1.33337 13.6049 1.33337 12.658Z" fill="#B6BCC3"/>
</svg>
