<svg width="36" height="32" viewBox="0 0 36 32" fill="none" xmlns="http://www.w3.org/2000/svg">
<g clip-path="url(#clip0)">
<path d="M7.65812 12.7635H2.73504C1.23077 12.7635 0 13.9943 0 15.4986V20.9687C0 22.473 1.23077 23.7037 2.73504 23.7037H6.74644C7.24786 23.7037 7.65812 23.2935 7.65812 22.792V12.7635ZM5.83476 21.8804H2.73504C2.23362 21.8804 1.82336 21.4701 1.82336 20.9687V15.4986C1.82336 14.9972 2.23362 14.5869 2.73504 14.5869H5.83476V21.8804Z" fill="#EF3124"/>
<path d="M32.5926 12.7635H28.5812C28.0798 12.7635 27.6696 13.1738 27.6696 13.6752V22.792C27.6696 23.2935 28.0798 23.7037 28.5812 23.7037H32.5926C34.0969 23.7037 35.3277 22.473 35.3277 20.9687V15.4986C35.3277 13.9943 34.1425 12.7635 32.5926 12.7635ZM33.5043 20.9687C33.5043 21.4701 33.0941 21.8804 32.5926 21.8804H29.4929V14.5869H32.5926C33.0941 14.5869 33.5043 14.9972 33.5043 15.4986V20.9687Z" fill="#EF3124"/>
<path fill-rule="evenodd" clip-rule="evenodd" d="M17.6866 0C11.1681 0 5.83472 5.33333 5.83472 11.8519V12.7635H7.65808V11.8519C7.65808 6.33618 12.1709 1.82336 17.6866 1.82336C22.6096 1.82336 26.8945 5.51567 27.6239 10.3932C27.7151 10.8946 28.1709 11.2593 28.6723 11.1681C29.1738 11.0769 29.5384 10.6211 29.4473 10.1197C28.5812 4.37607 23.5213 0 17.6866 0ZM28.6268 23.7036C28.4445 23.7036 28.2621 23.6581 28.1254 23.5669C27.7607 27.0313 25.0256 29.7207 21.4701 29.7207V30.6324C25.4815 30.6324 28.5812 27.5783 29.037 23.7036H28.6268ZM15.4986 28.3533H20.5128C21.0143 28.3533 21.4245 28.7635 21.4245 29.265V31.0883C21.4245 31.5897 21.0143 32 20.5128 32H15.4986C14.9972 32 14.5869 31.5897 14.5869 31.0883V29.265C14.5869 28.7635 14.9972 28.3533 15.4986 28.3533Z" fill="#6F7985"/>
</g>
<defs>
<clipPath id="clip0">
<rect width="35.3276" height="32" fill="white"/>
</clipPath>
</defs>
</svg>
