<svg width="32" height="32" viewBox="0 0 32 32" fill="none" xmlns="http://www.w3.org/2000/svg">
<path d="M16 32C7.2 32 0 24.8 0 16C0 7.2 7.2 0 16 0C24.8 0 32 7.2 32 16C32 18.6824 31.3412 21.3176 30.0706 23.6235C29.8353 24.0941 29.2706 24.2353 28.8 24C28.3294 23.7647 28.1882 23.2 28.4235 22.7294C29.5059 20.6588 30.1176 18.3529 30.1176 16C30.1176 8.23529 23.7647 1.88235 16 1.88235C8.23529 1.88235 1.88235 8.23529 1.88235 16C1.88235 23.7647 8.23529 30.1176 16 30.1176C20.1882 30.1176 24.0941 28.2824 26.7765 25.0824C27.1059 24.7059 27.7176 24.6588 28.0941 24.9882C28.4706 25.3176 28.5176 25.9294 28.1882 26.3059C25.1765 29.9294 20.7059 32 16 32Z" fill="#6F7985"/>
<path d="M22.0235 21.553C21.8353 21.553 21.6471 21.5059 21.4588 21.3648L15.0588 16.4706V5.64711C15.0588 5.12946 15.4824 4.70593 16 4.70593C16.5176 4.70593 16.9412 5.12946 16.9412 5.64711V15.5295L22.6353 19.8589C23.0588 20.1883 23.1059 20.753 22.8235 21.1765C22.5882 21.4118 22.3529 21.553 22.0235 21.553Z" fill="#EF3124"/>
</svg>
