<svg width="40" height="26" viewBox="0 0 40 26" fill="none" xmlns="http://www.w3.org/2000/svg">
<path d="M36.65 4.85H27.05V3C27.05 1.35 25.7 0 24.05 0H3C1.35 0 0 1.35 0 3V23C0 24.65 1.35 26 3 26H24.05C25.7 26 27.05 24.65 27.05 23V20.15V6.85H36.65C37.2 6.85 37.65 7.3 37.65 7.85V18.2C37.65 18.75 37.2 19.2 36.65 19.2H29.2C28.65 19.2 28.2 19.65 28.2 20.2C28.2 20.75 28.65 21.2 29.2 21.2H36.65C38.3 21.2 39.65 19.85 39.65 18.2V7.85C39.65 6.15 38.3 4.85 36.65 4.85ZM25.05 23C25.05 23.55 24.6 24 24.05 24H3C2.45 24 2 23.55 2 23V3C2 2.45 2.45 2 3 2H24.05C24.6 2 25.05 2.45 25.05 3V4.85V20.2V23Z" fill="#78818C"/>
<path d="M34.95 16.7H29.95C29.4 16.7 28.95 16.25 28.95 15.7C28.95 15.15 29.4 14.7 29.95 14.7H34.95C35.5 14.7 35.95 15.15 35.95 15.7C35.95 16.25 35.5 16.7 34.95 16.7Z" fill="#EF3124"/>
<path d="M29.9501 11.4H34.9501C35.5001 11.4 35.9501 10.95 35.9501 10.4C35.9501 9.84996 35.5001 9.39996 34.9501 9.39996H29.9501C29.4001 9.39996 28.9501 9.84996 28.9501 10.4C28.9501 10.95 29.3501 11.4 29.9501 11.4Z" fill="#EF3124"/>
<path d="M13.9503 18.3C11.0003 18.3 8.65027 15.9 8.65027 13C8.65027 10.05 11.0503 7.69995 13.9503 7.69995C16.8503 7.69995 19.2503 10.05 19.2503 13C19.2503 15.95 16.9003 18.3 13.9503 18.3ZM13.9503 9.69995C12.1003 9.69995 10.6503 11.2 10.6503 13C10.6503 14.8 12.1503 16.3 13.9503 16.3C15.7503 16.3 17.2503 14.8 17.2503 13C17.2503 11.2 15.8003 9.69995 13.9503 9.69995Z" fill="#EF3124"/>
</svg>
