<svg width="38" height="32" viewBox="0 0 38 32" fill="none" xmlns="http://www.w3.org/2000/svg">
<g clip-path="url(#clip0)">
<path d="M36.6667 5.33333C36.0556 5.33333 35.5556 5.83333 35.5556 6.44445V28.6667C35.5556 29.2778 35.0556 29.7778 34.4444 29.7778H3.33333C2.72222 29.7778 2.22222 29.2778 2.22222 28.6667V6.44445C2.22222 5.83333 2.72222 5.33333 3.33333 5.33333H6.16667V6.66667C6.16667 7.27778 6.66667 7.77778 7.27778 7.77778C7.88889 7.77778 8.38889 7.27778 8.38889 6.66667V5.33333H28.5V6.66667C28.5 7.27778 29 7.77778 29.6111 7.77778C30.2222 7.77778 30.7222 7.27778 30.7222 6.66667V5.33333H34.4444C35.0556 5.33333 35.5556 4.83333 35.5556 4.22222C35.5556 3.61111 35.0556 3.11111 34.4444 3.11111H30.7222V1.11111C30.7222 0.5 30.2222 0 29.6111 0C29 0 28.5 0.5 28.5 1.11111V3.11111H8.38889V1.11111C8.38889 0.5 7.88889 0 7.27778 0C6.66667 0 6.16667 0.5 6.16667 1.11111V3.11111H3.33333C1.5 3.11111 0 4.61111 0 6.44445V28.6667C0 30.5 1.5 32 3.33333 32H34.4444C36.2778 32 37.7778 30.5 37.7778 28.6667V6.44445C37.7778 5.83333 37.2778 5.33333 36.6667 5.33333Z" fill="#78818C"/>
<path d="M10.5 11.6111H8.33334C7.72223 11.6111 7.22223 12.1111 7.22223 12.7222V13.3333C7.22223 13.9444 7.72223 14.4444 8.33334 14.4444H10.5C11.1111 14.4444 11.6111 13.9444 11.6111 13.3333V12.6666C11.6111 12.1111 11.1111 11.6111 10.5 11.6111Z" fill="#EF3124"/>
<path d="M16.8333 11.6111H14.6667C14.0555 11.6111 13.5555 12.1111 13.5555 12.7222V13.3333C13.5555 13.9444 14.0555 14.4444 14.6667 14.4444H16.8333C17.4444 14.4444 17.9444 13.9444 17.9444 13.3333V12.6666C17.9444 12.1111 17.4444 11.6111 16.8333 11.6111Z" fill="#EF3124"/>
<path d="M23.1111 11.6111H20.9445C20.3333 11.6111 19.8333 12.1111 19.8333 12.7222V13.3333C19.8333 13.9444 20.3333 14.4444 20.9445 14.4444H23.1111C23.7222 14.4444 24.2222 13.9444 24.2222 13.3333V12.6666C24.2222 12.1111 23.7778 11.6111 23.1111 11.6111Z" fill="#EF3124"/>
<path d="M29.4445 11.6111H27.2778C26.6667 11.6111 26.1667 12.1111 26.1667 12.7222V13.3333C26.1667 13.9444 26.6667 14.4444 27.2778 14.4444H29.4445C30.0556 14.4444 30.5556 13.9444 30.5556 13.3333V12.6666C30.5556 12.1111 30.0556 11.6111 29.4445 11.6111Z" fill="#EF3124"/>
<path d="M10.5 17.1111H8.33334C7.72223 17.1111 7.22223 17.6111 7.22223 18.2222V18.8889C7.22223 19.5 7.72223 20 8.33334 20H10.5C11.1111 20 11.6111 19.5 11.6111 18.8889V18.2222C11.6111 17.6111 11.1111 17.1111 10.5 17.1111Z" fill="#EF3124"/>
<path d="M16.8333 17.1111H14.6667C14.0555 17.1111 13.5555 17.6111 13.5555 18.2222V18.8889C13.5555 19.5 14.0555 20 14.6667 20H16.8333C17.4444 20 17.9444 19.5 17.9444 18.8889V18.2222C17.9444 17.6111 17.4444 17.1111 16.8333 17.1111Z" fill="#EF3124"/>
<path d="M23.1111 17.1111H20.9445C20.3333 17.1111 19.8333 17.6111 19.8333 18.2222V18.8889C19.8333 19.5 20.3333 20 20.9445 20H23.1111C23.7222 20 24.2222 19.5 24.2222 18.8889V18.2222C24.2222 17.6111 23.7778 17.1111 23.1111 17.1111Z" fill="#EF3124"/>
<path d="M29.4445 17.1111H27.2778C26.6667 17.1111 26.1667 17.6111 26.1667 18.2222V18.8889C26.1667 19.5 26.6667 20 27.2778 20H29.4445C30.0556 20 30.5556 19.5 30.5556 18.8889V18.2222C30.5556 17.6111 30.0556 17.1111 29.4445 17.1111Z" fill="#EF3124"/>
<path d="M10.5 22.5555H8.33334C7.72223 22.5555 7.22223 23.0555 7.22223 23.6667V24.3333C7.22223 24.9444 7.72223 25.4444 8.33334 25.4444H10.5C11.1111 25.4444 11.6111 24.9444 11.6111 24.3333V23.6667C11.6111 23.0555 11.1111 22.5555 10.5 22.5555Z" fill="#EF3124"/>
<path d="M16.8333 22.5555H14.6667C14.0555 22.5555 13.5555 23.0555 13.5555 23.6667V24.3333C13.5555 24.9444 14.0555 25.4444 14.6667 25.4444H16.8333C17.4444 25.4444 17.9444 24.9444 17.9444 24.3333V23.6667C17.9444 23.0555 17.4444 22.5555 16.8333 22.5555Z" fill="#EF3124"/>
</g>
<defs>
<clipPath id="clip0">
<rect width="37.7778" height="32" fill="white"/>
</clipPath>
</defs>
</svg>
